<svg width="154" height="21" viewBox="0 0 154 21" fill="none" xmlns="http://www.w3.org/2000/svg">
<path d="M25.4838 10.016H28.2998V7.12H29.4518V10.016H32.2678V11.168H29.4518V14.048H28.2998V11.168H25.4838V10.016ZM34.6819 16L38.6979 6.624L39.4019 5.84L38.4579 5.984H33.8979V4.8H40.5859V5.232L35.9779 16H34.6819ZM48.6789 19.52C48.1882 19.008 47.7722 18.4427 47.4309 17.824C47.0895 17.216 46.8122 16.592 46.5989 15.952C46.3962 15.3013 46.2469 14.6507 46.1509 14C46.0549 13.3387 46.0069 12.7093 46.0069 12.112C46.0069 11.5253 46.0549 10.9067 46.1509 10.256C46.2469 9.60533 46.4015 8.95467 46.6149 8.304C46.8282 7.64267 47.1055 6.99733 47.4469 6.368C47.7989 5.73867 48.2255 5.152 48.7269 4.608L49.4949 5.168C49.0682 5.712 48.7109 6.27733 48.4229 6.864C48.1455 7.44 47.9215 8.02667 47.7509 8.624C47.5802 9.22133 47.4575 9.81867 47.3829 10.416C47.3189 11.0027 47.2869 11.568 47.2869 12.112C47.2869 12.624 47.3242 13.184 47.3989 13.792C47.4842 14.3893 47.6122 14.992 47.7829 15.6C47.9642 16.1973 48.1935 16.784 48.4709 17.36C48.7589 17.936 49.1002 18.4587 49.4949 18.928L48.6789 19.52ZM50.3633 8.192C50.3633 7.68 50.4379 7.20533 50.5872 6.768C50.7366 6.33067 50.9553 5.952 51.2433 5.632C51.5313 5.312 51.8886 5.06133 52.3153 4.88C52.7526 4.69867 53.2593 4.608 53.8353 4.608C54.9233 4.608 55.7713 4.96 56.3793 5.664C56.9873 6.368 57.2913 7.36 57.2913 8.64C57.2913 9.84533 57.1526 10.9013 56.8753 11.808C56.6086 12.704 56.2353 13.4613 55.7553 14.08C55.2753 14.6987 54.7046 15.184 54.0433 15.536C53.3926 15.8773 52.6833 16.096 51.9153 16.192L51.6273 15.168C52.2459 15.072 52.8006 14.8907 53.2913 14.624C53.7926 14.3573 54.2193 14.0213 54.5713 13.616C54.9339 13.2107 55.2273 12.752 55.4513 12.24C55.6753 11.7173 55.8299 11.152 55.9153 10.544C55.6273 10.8853 55.3073 11.1253 54.9553 11.264C54.6139 11.392 54.1606 11.456 53.5953 11.456C53.1579 11.456 52.7419 11.3867 52.3473 11.248C51.9633 11.0987 51.6219 10.8853 51.3233 10.608C51.0246 10.3307 50.7899 9.98933 50.6193 9.584C50.4486 9.17867 50.3633 8.71467 50.3633 8.192ZM51.6913 8.064C51.6913 8.82133 51.8886 9.392 52.2833 9.776C52.6886 10.1493 53.2166 10.336 53.8673 10.336C54.3899 10.336 54.8379 10.2507 55.2113 10.08C55.5846 9.90933 55.8513 9.68533 56.0113 9.408C56.0326 9.26933 56.0433 9.14667 56.0433 9.04C56.0433 8.93333 56.0433 8.82133 56.0433 8.704C56.0433 8.32 55.9953 7.952 55.8993 7.6C55.8139 7.23733 55.6806 6.91733 55.4993 6.64C55.3179 6.352 55.0779 6.128 54.7793 5.968C54.4913 5.808 54.1499 5.728 53.7552 5.728C53.1046 5.728 52.5979 5.936 52.2353 6.352C51.8726 6.75733 51.6913 7.328 51.6913 8.064ZM58.938 10.4C58.938 8.48 59.2473 7.03467 59.866 6.064C60.4953 5.09333 61.4073 4.608 62.602 4.608C63.8927 4.608 64.826 5.088 65.402 6.048C65.9887 6.99733 66.282 8.448 66.282 10.4C66.282 12.32 65.9673 13.7653 65.338 14.736C64.7193 15.7067 63.8073 16.192 62.602 16.192C61.3327 16.192 60.4047 15.6853 59.818 14.672C59.2313 13.6587 58.938 12.2347 58.938 10.4ZM60.266 10.4C60.266 11.0933 60.3087 11.728 60.394 12.304C60.49 12.8693 60.634 13.36 60.826 13.776C61.018 14.1813 61.258 14.5013 61.546 14.736C61.8447 14.96 62.1967 15.072 62.602 15.072C63.4127 15.072 64.0047 14.6987 64.378 13.952C64.762 13.1947 64.954 12.0107 64.954 10.4C64.954 9.71733 64.9113 9.088 64.826 8.512C64.7513 7.936 64.618 7.44 64.426 7.024C64.2447 6.608 64.0047 6.288 63.706 6.064C63.4073 5.84 63.0393 5.728 62.602 5.728C61.802 5.728 61.21 6.10667 60.826 6.864C60.4527 7.62133 60.266 8.8 60.266 10.4ZM70.3768 15.072C71.1128 15.072 71.7208 14.8587 72.2008 14.432C72.6808 14.0053 72.9208 13.3867 72.9208 12.576C72.9208 11.7973 72.6808 11.216 72.2008 10.832C71.7314 10.448 71.0808 10.256 70.2488 10.256L68.9048 10.336V4.8H73.8968V5.984H70.1048V9.168L70.7928 9.136C71.8488 9.14667 72.6808 9.44 73.2888 10.016C73.8968 10.592 74.2008 11.4187 74.2008 12.496C74.2008 13.0933 74.0994 13.6267 73.8968 14.096C73.6941 14.5547 73.4168 14.9387 73.0648 15.248C72.7234 15.5573 72.3181 15.792 71.8488 15.952C71.3794 16.112 70.8781 16.192 70.3448 16.192C69.8648 16.192 69.4594 16.1653 69.1288 16.112C68.7981 16.0587 68.4888 15.9787 68.2008 15.872L68.5368 14.784C68.7821 14.88 69.0434 14.9547 69.3207 15.008C69.6088 15.0507 69.9608 15.072 70.3768 15.072ZM76.5355 4.608C77.0262 5.12 77.4422 5.68533 77.7835 6.304C78.1248 6.912 78.3968 7.54133 78.5995 8.192C78.8128 8.832 78.9675 9.48267 79.0635 10.144C79.1595 10.7947 79.2075 11.4187 79.2075 12.016C79.2075 12.6027 79.1595 13.2213 79.0635 13.872C78.9675 14.5227 78.8128 15.1787 78.5995 15.84C78.3862 16.4907 78.1035 17.1307 77.7515 17.76C77.4102 18.3893 76.9888 18.976 76.4875 19.52L75.7195 18.96C76.1462 18.416 76.5035 17.8507 76.7915 17.264C77.0795 16.6773 77.3035 16.0853 77.4635 15.488C77.6342 14.8907 77.7515 14.2987 77.8155 13.712C77.8902 13.1253 77.9275 12.56 77.9275 12.016C77.9275 11.504 77.8848 10.9493 77.7995 10.352C77.7142 9.75467 77.5808 9.152 77.3995 8.544C77.2288 7.936 77.0048 7.344 76.7275 6.768C76.4502 6.192 76.1142 5.66933 75.7195 5.2L76.5355 4.608ZM87.8455 15.072C88.5815 15.072 89.1895 14.8587 89.6695 14.432C90.1495 14.0053 90.3895 13.3867 90.3895 12.576C90.3895 11.7973 90.1495 11.216 89.6695 10.832C89.2002 10.448 88.5495 10.256 87.7175 10.256L86.3735 10.336V4.8H91.3655V5.984H87.5735V9.168L88.2615 9.136C89.3175 9.14667 90.1495 9.44 90.7575 10.016C91.3655 10.592 91.6695 11.4187 91.6695 12.496C91.6695 13.0933 91.5682 13.6267 91.3655 14.096C91.1628 14.5547 90.8855 14.9387 90.5335 15.248C90.1922 15.5573 89.7868 15.792 89.3175 15.952C88.8482 16.112 88.3468 16.192 87.8135 16.192C87.3335 16.192 86.9282 16.1653 86.5975 16.112C86.2668 16.0587 85.9575 15.9787 85.6695 15.872L86.0055 14.784C86.2508 14.88 86.5122 14.9547 86.7895 15.008C87.0775 15.0507 87.4295 15.072 87.8455 15.072ZM101.54 12.56H99.6523V16H98.4043V12.56H93.4763V12.032L98.7883 4.624H99.6523V11.44H101.54V12.56ZM98.4043 7.952L98.5643 6.64H98.5163L97.9563 7.728L95.7003 10.784L94.9323 11.568L96.0523 11.44H98.4043V7.952ZM105.619 15.072C105.982 15.072 106.318 15.0187 106.627 14.912C106.936 14.8053 107.203 14.6507 107.427 14.448C107.651 14.2347 107.827 13.984 107.955 13.696C108.083 13.408 108.147 13.0933 108.147 12.752C108.147 12.0053 107.923 11.4507 107.475 11.088C107.038 10.7253 106.43 10.544 105.651 10.544H104.467V10.08L106.771 6.528L107.507 5.824L106.467 5.984H103.299V4.8H109.011V5.264L106.467 9.088L105.907 9.552V9.584L106.451 9.472C106.878 9.48267 107.272 9.56267 107.635 9.712C107.998 9.85067 108.312 10.0587 108.579 10.336C108.846 10.6027 109.054 10.928 109.203 11.312C109.352 11.6853 109.427 12.112 109.427 12.592C109.427 13.168 109.326 13.68 109.123 14.128C108.92 14.576 108.643 14.9547 108.291 15.264C107.95 15.5627 107.544 15.792 107.075 15.952C106.606 16.112 106.11 16.192 105.587 16.192C105.107 16.192 104.675 16.1547 104.291 16.08C103.907 16.0053 103.571 15.9093 103.283 15.792L103.619 14.656C103.864 14.7733 104.152 14.8747 104.483 14.96C104.824 15.0347 105.203 15.072 105.619 15.072ZM121.995 7.344C121.995 7.90933 121.889 8.49067 121.675 9.088C121.473 9.67467 121.201 10.2667 120.859 10.864C120.529 11.4613 120.155 12.048 119.739 12.624C119.323 13.1893 118.907 13.728 118.491 14.24L117.707 14.928V14.992L118.731 14.816H122.219V16H115.851V15.536C116.086 15.2907 116.369 14.9867 116.699 14.624C117.03 14.2613 117.371 13.8613 117.723 13.424C118.086 12.976 118.438 12.5067 118.779 12.016C119.131 11.5147 119.446 11.008 119.723 10.496C120.011 9.984 120.241 9.47733 120.411 8.976C120.582 8.47467 120.667 8 120.667 7.552C120.667 7.02933 120.518 6.59733 120.219 6.256C119.921 5.904 119.467 5.728 118.859 5.728C118.454 5.728 118.059 5.81333 117.675 5.984C117.291 6.144 116.961 6.33067 116.683 6.544L116.155 5.632C116.529 5.312 116.971 5.06133 117.483 4.88C117.995 4.69867 118.545 4.608 119.131 4.608C119.59 4.608 119.995 4.67733 120.347 4.816C120.699 4.944 120.998 5.13067 121.243 5.376C121.489 5.62133 121.675 5.91467 121.803 6.256C121.931 6.58667 121.995 6.94933 121.995 7.344ZM127.322 15.072C127.685 15.072 128.021 15.0187 128.33 14.912C128.639 14.8053 128.906 14.6507 129.13 14.448C129.354 14.2347 129.53 13.984 129.658 13.696C129.786 13.408 129.85 13.0933 129.85 12.752C129.85 12.0053 129.626 11.4507 129.178 11.088C128.741 10.7253 128.133 10.544 127.354 10.544H126.17V10.08L128.474 6.528L129.21 5.824L128.17 5.984H125.002V4.8H130.714V5.264L128.17 9.088L127.61 9.552V9.584L128.154 9.472C128.581 9.48267 128.975 9.56267 129.338 9.712C129.701 9.85067 130.015 10.0587 130.282 10.336C130.549 10.6027 130.757 10.928 130.906 11.312C131.055 11.6853 131.13 12.112 131.13 12.592C131.13 13.168 131.029 13.68 130.826 14.128C130.623 14.576 130.346 14.9547 129.994 15.264C129.653 15.5627 129.247 15.792 128.778 15.952C128.309 16.112 127.813 16.192 127.29 16.192C126.81 16.192 126.378 16.1547 125.994 16.08C125.61 16.0053 125.274 15.9093 124.986 15.792L125.322 14.656C125.567 14.7733 125.855 14.8747 126.186 14.96C126.527 15.0347 126.906 15.072 127.322 15.072ZM144.947 12.56H143.059V16H141.811V12.56H136.883V12.032L142.195 4.624H143.059V11.44H144.947V12.56ZM141.811 7.952L141.971 6.64H141.923L141.363 7.728L139.107 10.784L138.339 11.568L139.459 11.44H141.811V7.952ZM148.689 15.072C149.425 15.072 150.033 14.8587 150.513 14.432C150.993 14.0053 151.233 13.3867 151.233 12.576C151.233 11.7973 150.993 11.216 150.513 10.832C150.044 10.448 149.393 10.256 148.561 10.256L147.217 10.336V4.8H152.209V5.984H148.417V9.168L149.105 9.136C150.161 9.14667 150.993 9.44 151.601 10.016C152.209 10.592 152.513 11.4187 152.513 12.496C152.513 13.0933 152.412 13.6267 152.209 14.096C152.007 14.5547 151.729 14.9387 151.377 15.248C151.036 15.5573 150.631 15.792 150.161 15.952C149.692 16.112 149.191 16.192 148.657 16.192C148.177 16.192 147.772 16.1653 147.441 16.112C147.111 16.0587 146.801 15.9787 146.513 15.872L146.849 14.784C147.095 14.88 147.356 14.9547 147.633 15.008C147.921 15.0507 148.273 15.072 148.689 15.072Z" fill="#999999"/>
<g clip-path="url(#clip0_1_322)">
<path d="M13.75 1.25H6.25C5.55937 1.25 5 1.80937 5 2.5V17.5C5 18.1906 5.55937 18.75 6.25 18.75H13.75C14.4406 18.75 15 18.1906 15 17.5V2.5C15 1.80937 14.4406 1.25 13.75 1.25ZM10 17.5C9.655 17.5 9.375 17.22 9.375 16.875C9.375 16.53 9.655 16.25 10 16.25C10.345 16.25 10.625 16.53 10.625 16.875C10.625 17.22 10.345 17.5 10 17.5ZM13.75 15.625H6.25V3.125H13.75V15.625Z" fill="#999999"/>
</g>
<defs>
<clipPath id="clip0_1_322">
<rect width="20" height="20" fill="white"/>
</clipPath>
</defs>
</svg>
